# xmcd CD database file
#
# Track frame offsets:
#	150
#	1212
#	11837
#	30512
#	47232
#	65340
#	80887
#	94725
#	108732
#	125045
#	135925
#	156205
#	171075
#
# Disc length: 2507 seconds
#
# Revision: 0
# Processed by: cddbd v1.4PL0 Copyright (c) Steve Scherf et al.
# Submitted via: CDex 1.50beta10
#
DISCID=a809c90d
DTITLE=Phonus Balonus - Come to Mama
DYEAR=1990
DGENRE=Blues
TTITLE0=Oh , Lord what a morning
TTITLE1=I'm Fat
TTITLE2=Come to Mama
TTITLE3=I'm a little mixed up
TTITLE4=I got what it takes
TTITLE5=Two lovers
TTITLE6=Come to me
TTITLE7=Can't trust your neighbour
TTITLE8=I'm a woman
TTITLE9=Too Late
TTITLE10=Steppin' in and Steppin' out
TTITLE11=Don't throw no stones at me
TTITLE12=You ain't got it no more (The original Laid Back Club version)
EXTD=YEAR: 1990
EXTT0=
EXTT1=
EXTT2=
EXTT3=
EXTT4=
EXTT5=
EXTT6=
EXTT7=
EXTT8=
EXTT9=
EXTT10=
EXTT11=
EXTT12=
PLAYORDER=
